<?xml version="1.0" encoding="UTF-8"?>
<svg width="332px" height="76px" viewBox="0 0 332 76" version="1.1" xmlns="http://www.w3.org/2000/svg" xmlns:xlink="http://www.w3.org/1999/xlink">
    <!-- Generator: Sketch 3.8.3 (29802) - http://www.bohemiancoding.com/sketch -->
    <title>INRUSSIA</title>
    <desc>Created with Sketch.</desc>
    <defs></defs>
    <g id="Page-1" stroke="none" stroke-width="1" fill="none" fill-rule="evenodd">
        <path d="M0,74 L15.5,74 L15.5,1.7 L0,1.7 L0,74 Z M24.2,74 L37.1,74 L37,27 L37.6,27 L52.1,74 L70.2,74 L70.2,1.7 L57.7,1.7 L57.8,49.1 L57.2,49.1 L42.7,1.7 L24.2,1.7 L24.2,74 Z M78.9000001,74 L94.5000001,74 L94.4000001,43 L95.2000001,43 L107.9,74 L124.9,74 L109.5,40.4 C116.8,36.9 122.2,31 122.2,21.6 C122.2,8.6 110.2,1.7 99.3000001,1.7 L78.9000001,1.7 L78.9000001,74 Z M94.4000001,12.9 L98.1000001,13 C102.4,13.1 106.1,17.2 106.1,23.3 C106.1,29.7 102.8,33.8 98.0000001,33.9 L94.4000001,34 L94.4000001,12.9 Z M149.3,75.4 C161.6,75.4 170.4,67 170.4,48.3 L170.4,1.7 L155.2,1.7 L155.2,50.5 C155.2,60.2 153.2,63.9 149.4,63.9 C145.7,63.9 143.5,60.3 143.5,50.5 L143.5,1.7 L128,1.7 L128,48.3 C128,67 137.1,75.4 149.3,75.4 L149.3,75.4 Z M175.3,53.8 C176.3,70.3 187.5,75.5 196,75.5 C207.5,75.5 216,67.4 216,54.5 C216,42.7 208.8,35.2 199.9,29.7 C194.1,26.1 191.4,22.3 191.4,18.4 C191.4,14.3 193.1,11.3 195.6,11.3 C198.6,11.3 200,15.8 199.4,21.1 L215,21.1 C213.8,7.4 205.4,0.6 195.5,0.6 C185,0.6 176,8.3 176,21.6 C176,32.7 183.8,40.3 191.7,45.5 C196.9,49 200.4,53.2 200.4,58.6 C200.4,62.2 198.9,65 195.9,65 C192.1,65 190.6,59.8 191.7,53.8 L175.3,53.8 Z M217.2,53.8 C218.2,70.3 229.4,75.5 237.9,75.5 C249.4,75.5 257.9,67.4 257.9,54.5 C257.9,42.7 250.7,35.2 241.8,29.7 C236,26.1 233.3,22.3 233.3,18.4 C233.3,14.3 235,11.3 237.5,11.3 C240.5,11.3 241.9,15.8 241.3,21.1 L256.9,21.1 C255.7,7.4 247.3,0.6 237.4,0.6 C226.9,0.6 217.9,8.3 217.9,21.6 C217.9,32.7 225.7,40.3 233.6,45.5 C238.8,49 242.3,53.2 242.3,58.6 C242.3,62.2 240.8,65 237.8,65 C234,65 232.5,59.8 233.6,53.8 L217.2,53.8 Z M263.4,74 L278.9,74 L278.9,1.7 L263.4,1.7 L263.4,74 Z M316.1,74 L331.3,74 L315.7,1.7 L297.4,1.7 L282.6,74 L297.2,74 L299.6,59.8 L313.8,59.8 L316.1,74 Z M312,48.2 L301.4,48.2 L306.4,20.4 L307.2,20.4 L312,48.2 Z" id="INRUSSIA" fill="#000000"></path>
    </g>
</svg>